HIERARCHY
ROOT Hips
{
    OFFSET 0.000000 91.430000 0.000000
    CHANNELS 6 Xposition Yposition Zposition Yrotation Xrotation Zrotation
    JOINT RightUpLeg
    {
        OFFSET -9.250000 -0.000000 0.000000
        CHANNELS 3 Yrotation Xrotation Zrotation
        JOINT RightLeg
        {
            OFFSET 0.000000 -41.869999 0.000000
            CHANNELS 3 Yrotation Xrotation Zrotation
            JOINT RightFoot
            {
                OFFSET 0.000000 -41.869999 0.000000
                CHANNELS 3 Yrotation Xrotation Zrotation
                End Site
                {
                    OFFSET 0.000000 -7.690000 14.000000
                }
            }
        }
    }
    JOINT LeftUpLeg
    {
        OFFSET 9.250000 -0.000000 0.000000
        CHANNELS 3 Yrotation Xrotation Zrotation
        JOINT LeftLeg
        {
            OFFSET 0.000000 -41.869999 0.000000
            CHANNELS 3 Yrotation Xrotation Zrotation
            JOINT LeftFoot
            {
                OFFSET 0.000000 -41.869999 0.000000
                CHANNELS 3 Yrotation Xrotation Zrotation
                End Site
                {
                    OFFSET 0.000000 -7.690000 14.000000
                }
            }
        }
    }
    JOINT Spine
    {
        OFFSET 0.000000 7.818000 0.000000
        CHANNELS 3 Yrotation Xrotation Zrotation
        JOINT Spine1
        {
            OFFSET 0.000000 17.309999 0.000000
            CHANNELS 3 Yrotation Xrotation Zrotation
            JOINT Spine2
            {
                OFFSET 0.000000 12.285000 0.000000
                CHANNELS 3 Yrotation Xrotation Zrotation
                JOINT Neck
                {
                    OFFSET 0.000000 18.427000 0.000000
                    CHANNELS 3 Yrotation Xrotation Zrotation
                    JOINT Neck1
                    {
                        OFFSET 0.000000 4.735000 0.000000
                        CHANNELS 3 Yrotation Xrotation Zrotation
                        JOINT Head
                        {
                            OFFSET 0.000000 4.735000 0.000000
                            CHANNELS 3 Yrotation Xrotation Zrotation
                            End Site
                            {
                                OFFSET 0.000000 15.950000 0.000000
                            }
                        }
                    }
                }
                JOINT RightShoulder
                {
                    OFFSET -2.792000 12.843000 0.000000
                    CHANNELS 3 Yrotation Xrotation Zrotation
                    JOINT RightArm
                    {
                        OFFSET -13.208000 0.000000 0.000000
                        CHANNELS 3 Yrotation Xrotation Zrotation
                        JOINT RightForeArm
                        {
                            OFFSET -26.500000 0.000000 0.000000
                            CHANNELS 3 Yrotation Xrotation Zrotation
                            JOINT RightHand
                            {
                                OFFSET -26.000000 0.000000 0.000000
                                CHANNELS 3 Yrotation Xrotation Zrotation
                                JOINT RightHandThumb1
                                {
                                    OFFSET -1.842000 -0.461000 2.395000
                                    CHANNELS 3 Yrotation Xrotation Zrotation
                                    JOINT RightHandThumb2
                                    {
                                        OFFSET -3.682000 0.000000 0.000000
                                        CHANNELS 3 Yrotation Xrotation Zrotation
                                        JOINT RightHandThumb3
                                        {
                                            OFFSET -2.559000 0.000000 0.000000
                                            CHANNELS 3 Yrotation Xrotation Zrotation
                                            End Site
                                            {
                                                OFFSET -2.413000 0.000000 0.000000
                                            }
                                        }
                                    }
                                }
                                JOINT RightInHandIndex
                                {
                                    OFFSET -3.224000 0.508000 1.978000
                                    CHANNELS 3 Yrotation Xrotation Zrotation
                                    JOINT RightHandIndex1
                                    {
                                        OFFSET -5.217000 -0.091000 0.999000
                                        CHANNELS 3 Yrotation Xrotation Zrotation
                                        JOINT RightHandIndex2
                                        {
                                            OFFSET -3.620000 0.000000 0.000000
                                            CHANNELS 3 Yrotation Xrotation Zrotation
                                            JOINT RightHandIndex3
                                            {
                                                OFFSET -2.052000 0.000000 0.000000
                                                CHANNELS 3 Yrotation Xrotation Zrotation
                                                End Site
                                                {
                                                    OFFSET -1.805000 0.000000 0.000000
                                                }
                                            }
                                        }
                                    }
                                }
                                JOINT RightInHandMiddle
                                {
                                    OFFSET -3.382000 0.518000 0.757000
                                    CHANNELS 3 Yrotation Xrotation Zrotation
                                    JOINT RightHandMiddle1
                                    {
                                        OFFSET -5.174000 -0.084000 0.314000
                                        CHANNELS 3 Yrotation Xrotation Zrotation
                                        JOINT RightHandMiddle2
                                        {
                                            OFFSET -3.949000 0.000000 0.000000
                                            CHANNELS 3 Yrotation Xrotation Zrotation
                                            JOINT RightHandMiddle3
                                            {
                                                OFFSET -2.476000 0.000000 0.000000
                                                CHANNELS 3 Yrotation Xrotation Zrotation
                                                End Site
                                                {
                                                    OFFSET -1.975000 0.000000 0.000000
                                                }
                                            }
                                        }
                                    }
                                }
                                JOINT RightInHandRing
                                {
                                    OFFSET -3.366000 0.538000 -0.129000
                                    CHANNELS 3 Yrotation Xrotation Zrotation
                                    JOINT RightHandRing1
                                    {
                                        OFFSET -4.635000 -0.022000 -0.479000
                                        CHANNELS 3 Yrotation Xrotation Zrotation
                                        JOINT RightHandRing2
                                        {
                                            OFFSET -3.442000 0.000000 0.000000
                                            CHANNELS 3 Yrotation Xrotation Zrotation
                                            JOINT RightHandRing3
                                            {
                                                OFFSET -2.388000 0.000000 0.000000
                                                CHANNELS 3 Yrotation Xrotation Zrotation
                                                End Site
                                                {
                                                    OFFSET -1.857000 0.000000 0.000000
                                                }
                                            }
                                        }
                                    }
                                }
                                JOINT RightInHandPinky
                                {
                                    OFFSET -3.161000 0.470000 -1.202000
                                    CHANNELS 3 Yrotation Xrotation Zrotation
                                    JOINT RightHandPinky1
                                    {
                                        OFFSET -4.141000 -0.022000 -1.091000
                                        CHANNELS 3 Yrotation Xrotation Zrotation
                                        JOINT RightHandPinky2
                                        {
                                            OFFSET -2.757000 0.000000 0.000000
                                            CHANNELS 3 Yrotation Xrotation Zrotation
                                            JOINT RightHandPinky3
                                            {
                                                OFFSET -1.742000 0.000000 0.000000
                                                CHANNELS 3 Yrotation Xrotation Zrotation
                                                End Site
                                                {
                                                    OFFSET -1.645000 0.000000 0.000000
                                                }
                                            }
                                        }
                                    }
                                }
                            }
                        }
                    }
                }
                JOINT LeftShoulder
                {
                    OFFSET 2.792000 12.843000 0.000000
                    CHANNELS 3 Yrotation Xrotation Zrotation
                    JOINT LeftArm
                    {
                        OFFSET 13.208000 0.000000 0.000000
                        CHANNELS 3 Yrotation Xrotation Zrotation
                        JOINT LeftForeArm
                        {
                            OFFSET 26.500000 0.000000 0.000000
                            CHANNELS 3 Yrotation Xrotation Zrotation
                            JOINT LeftHand
                            {
                                OFFSET 26.000000 0.000000 0.000000
                                CHANNELS 3 Yrotation Xrotation Zrotation
                                JOINT LeftHandThumb1
                                {
                                    OFFSET 1.842000 -0.461000 2.395000
                                    CHANNELS 3 Yrotation Xrotation Zrotation
                                    JOINT LeftHandThumb2
                                    {
                                        OFFSET 3.682000 0.000000 0.000000
                                        CHANNELS 3 Yrotation Xrotation Zrotation
                                        JOINT LeftHandThumb3
                                        {
                                            OFFSET 2.559000 0.000000 0.000000
                                            CHANNELS 3 Yrotation Xrotation Zrotation
                                            End Site
                                            {
                                                OFFSET 2.413000 0.000000 0.000000
                                            }
                                        }
                                    }
                                }
                                JOINT LeftInHandIndex
                                {
                                    OFFSET 3.224000 0.508000 1.978000
                                    CHANNELS 3 Yrotation Xrotation Zrotation
                                    JOINT LeftHandIndex1
                                    {
                                        OFFSET 5.217000 -0.091000 0.999000
                                        CHANNELS 3 Yrotation Xrotation Zrotation
                                        JOINT LeftHandIndex2
                                        {
                                            OFFSET 3.620000 0.000000 0.000000
                                            CHANNELS 3 Yrotation Xrotation Zrotation
                                            JOINT LeftHandIndex3
                                            {
                                                OFFSET 2.052000 0.000000 0.000000
                                                CHANNELS 3 Yrotation Xrotation Zrotation
                                                End Site
                                                {
                                                    OFFSET 1.805000 0.000000 0.000000
                                                }
                                            }
                                        }
                                    }
                                }
                                JOINT LeftInHandMiddle
                                {
                                    OFFSET 3.382000 0.518000 0.757000
                                    CHANNELS 3 Yrotation Xrotation Zrotation
                                    JOINT LeftHandMiddle1
                                    {
                                        OFFSET 5.174000 -0.084000 0.314000
                                        CHANNELS 3 Yrotation Xrotation Zrotation
                                        JOINT LeftHandMiddle2
                                        {
                                            OFFSET 3.949000 0.000000 0.000000
                                            CHANNELS 3 Yrotation Xrotation Zrotation
                                            JOINT LeftHandMiddle3
                                            {
                                                OFFSET 2.476000 0.000000 0.000000
                                                CHANNELS 3 Yrotation Xrotation Zrotation
                                                End Site
                                                {
                                                    OFFSET 1.975000 0.000000 0.000000
                                                }
                                            }
                                        }
                                    }
                                }
                                JOINT LeftInHandRing
                                {
                                    OFFSET 3.366000 0.538000 -0.129000
                                    CHANNELS 3 Yrotation Xrotation Zrotation
                                    JOINT LeftHandRing1
                                    {
                                        OFFSET 4.635000 -0.022000 -0.479000
                                        CHANNELS 3 Yrotation Xrotation Zrotation
                                        JOINT LeftHandRing2
                                        {
                                            OFFSET 3.442000 0.000000 0.000000
                                            CHANNELS 3 Yrotation Xrotation Zrotation
                                            JOINT LeftHandRing3
                                            {
                                                OFFSET 2.388000 0.000000 0.000000
                                                CHANNELS 3 Yrotation Xrotation Zrotation
                                                End Site
                                                {
                                                    OFFSET 1.857000 0.000000 0.000000
                                                }
                                            }
                                        }
                                    }
                                }
                                JOINT LeftInHandPinky
                                {
                                    OFFSET 3.161000 0.470000 -1.202000
                                    CHANNELS 3 Yrotation Xrotation Zrotation
                                    JOINT LeftHandPinky1
                                    {
                                        OFFSET 4.141000 -0.022000 -1.091000
                                        CHANNELS 3 Yrotation Xrotation Zrotation
                                        JOINT LeftHandPinky2
                                        {
                                            OFFSET 2.757000 0.000000 0.000000
                                            CHANNELS 3 Yrotation Xrotation Zrotation
                                            JOINT LeftHandPinky3
                                            {
                                                OFFSET 1.742000 0.000000 0.000000
                                                CHANNELS 3 Yrotation Xrotation Zrotation
                                                End Site
                                                {
                                                    OFFSET 1.645000 0.000000 0.000000
                                                }
                                            }
                                        }
                                    }
                                }
                            }
                        }
                    }
                }
            }
        }
    }
}
MOTION
Frames: 4
Frame Time: 0.016667
-64.255348 75.169266 -194.871735 119.782089 15.993866 26.211573 175.207092 -140.256287 -167.504791 161.667572 128.187271 162.785019 167.558243 -145.518265 -178.461853 40.819408 12.424168 19.181572 3.161806 38.785954 -2.010692 165.904663 178.998505 -172.974136 1.299818 -2.010137 -1.586787 1.298773 -1.946468 -2.613964 5.893110 -0.863492 -3.557550 0.000471 -0.619103 -2.270662 0.000040 -0.720719 -2.352176 161.050858 -179.323303 178.805313 163.034912 179.440948 177.050369 178.548935 -130.227005 -143.804916 39.530327 1.874832 13.100691 164.731750 150.649368 151.521240 43.477409 -0.000024 12.839273 176.995316 179.999985 -160.741119 0.755723 0.000000 -0.000003 180.000000 -180.000000 180.000000 15.000049 -0.000005 22.983458 180.000000 -179.999985 -161.195358 0.000001 0.000007 13.163306 180.000000 -180.000000 -180.000000 0.000010 0.000003 28.287096 0.000001 -0.000009 34.104549 180.000000 -180.000000 -157.286423 180.000000 -180.000000 180.000000 170.000015 -179.999985 -152.110260 179.999985 180.000000 -148.689804 0.000008 0.000006 20.852537 180.000000 -180.000000 180.000000 160.000061 -179.999985 -155.133041 180.000000 179.999985 -142.699570 180.000000 -179.999985 -155.157928 1.652747 1.764987 -0.566727 5.546503 -39.307934 -51.325813 161.092667 176.498779 175.939377 16.568567 38.697495 45.247818 136.522598 -179.999985 167.160721 3.004681 0.000008 -19.258894 0.755723 0.000000 -0.000003 0.000005 -0.000002 0.000002 164.999954 -179.999985 157.016541 0.000002 -0.000003 -18.804642 180.000000 179.999985 166.836685 0.000005 -0.000002 0.000002 179.999985 179.999985 151.712906 180.000000 -179.999985 145.895447 0.000000 -0.000002 -22.713579 0.000005 -0.000002 0.000002 9.999979 -0.000006 -27.889727 0.000007 0.000000 -31.310192 179.999985 179.999985 159.147461 0.000005 -0.000002 0.000002 19.999945 -0.000026 -24.866964 0.000004 0.000009 -37.300442 0.000001 -0.000004 -24.842075
-63.591732 75.432930 -193.708984 121.020668 15.789351 25.983366 175.217087 -141.184418 -167.221970 162.412506 129.224533 163.558701 167.832855 -145.996368 -178.828247 40.329128 11.579161 18.394554 4.254551 40.986225 -1.672490 166.025909 178.936813 -172.801392 1.328607 -2.109367 -1.533283 1.327569 -2.044340 -2.523078 6.025563 -0.940720 -3.453956 0.000254 -0.539041 -2.775976 179.999695 -179.372910 177.124451 169.147171 -179.537323 178.360870 163.219910 178.912231 177.242035 176.974731 -131.450394 -142.546478 40.311916 2.674472 13.358269 165.032730 151.017654 151.919891 43.477409 -0.000024 12.839273 176.995316 179.999985 -160.741119 0.755723 0.000000 -0.000003 180.000000 -180.000000 180.000000 15.000049 -0.000005 22.983458 180.000000 -179.999985 -161.195358 0.000001 0.000007 13.163306 180.000000 -180.000000 -180.000000 0.000010 0.000003 28.287096 0.000001 -0.000009 34.104549 180.000000 -180.000000 -157.286423 180.000000 -180.000000 180.000000 170.000015 -179.999985 -152.110260 179.999985 180.000000 -148.689804 0.000008 0.000006 20.852537 180.000000 -180.000000 180.000000 160.000061 -179.999985 -155.133041 180.000000 179.999985 -142.699570 180.000000 -179.999985 -155.157928 1.617517 2.254887 -0.740801 6.031343 -38.175503 -54.506763 161.055130 175.890274 175.853363 16.817392 38.885208 45.442135 136.522598 -179.999985 167.160721 3.004681 0.000008 -19.258894 0.755723 0.000000 -0.000003 0.000005 -0.000002 0.000002 164.999954 -179.999985 157.016541 0.000002 -0.000003 -18.804642 180.000000 179.999985 166.836685 0.000005 -0.000002 0.000002 179.999985 179.999985 151.712906 180.000000 -179.999985 145.895447 0.000000 -0.000002 -22.713579 0.000005 -0.000002 0.000002 9.999979 -0.000006 -27.889727 0.000007 0.000000 -31.310192 179.999985 179.999985 159.147461 0.000005 -0.000002 0.000002 19.999945 -0.000026 -24.866964 0.000004 0.000009 -37.300442 0.000001 -0.000004 -24.842075
-62.932903 75.716026 -192.484421 122.578110 15.497964 25.796988 174.787216 -141.945770 -166.843796 163.715759 129.790756 164.292389 167.730133 -146.466843 -178.910202 39.554207 10.613790 17.529922 5.151507 43.626492 -1.621705 165.868332 179.310349 -172.019455 1.298999 -2.217945 -1.478604 1.298046 -2.152554 -2.431191 5.886642 -1.050219 -3.343594 179.999786 -179.532944 176.666412 179.999207 -179.456345 176.547363 178.176956 -179.692505 177.953659 163.366302 178.436951 177.371490 175.354675 -132.834686 -141.172394 40.900276 3.340548 13.432714 165.564011 151.370438 152.530869 43.477409 -0.000024 12.839273 176.995316 179.999985 -160.741119 0.755723 0.000000 -0.000003 180.000000 -180.000000 180.000000 15.000049 -0.000005 22.983458 180.000000 -179.999985 -161.195358 0.000001 0.000007 13.163306 180.000000 -180.000000 -180.000000 0.000010 0.000003 28.287096 0.000001 -0.000009 34.104549 180.000000 -180.000000 -157.286423 180.000000 -180.000000 180.000000 170.000015 -179.999985 -152.110260 179.999985 180.000000 -148.689804 0.000008 0.000006 20.852537 180.000000 -180.000000 180.000000 160.000061 -179.999985 -155.133041 180.000000 179.999985 -142.699570 180.000000 -179.999985 -155.157928 1.893101 2.809277 -0.984813 5.986015 -37.292412 -57.238815 161.579987 175.214935 175.275635 16.844376 38.964100 45.171410 136.522598 -179.999985 167.160721 3.004681 0.000008 -19.258894 0.755723 0.000000 -0.000003 0.000005 -0.000002 0.000002 164.999954 -179.999985 157.016541 0.000002 -0.000003 -18.804642 180.000000 179.999985 166.836685 0.000005 -0.000002 0.000002 179.999985 179.999985 151.712906 180.000000 -179.999985 145.895447 0.000000 -0.000002 -22.713579 0.000005 -0.000002 0.000002 9.999979 -0.000006 -27.889727 0.000007 0.000000 -31.310192 179.999985 179.999985 159.147461 0.000005 -0.000002 0.000002 19.999945 -0.000026 -24.866964 0.000004 0.000009 -37.300442 0.000001 -0.000004 -24.842075
-62.258877 76.000618 -191.209763 124.141380 15.190378 25.699486 174.554214 -142.769470 -166.578323 164.492020 130.431229 164.474854 167.517929 -146.744492 -178.634903 38.906261 9.578581 16.440498 5.702819 46.180237 -1.391854 165.734131 179.958832 -170.907028 1.288982 -2.325745 -1.453803 1.288067 -2.259096 -2.388574 5.835691 -1.139556 -3.298774 179.999542 -179.517685 176.289719 179.998810 -179.438736 176.157318 5.016049 -0.039984 -2.320447 163.728897 177.784668 177.480331 173.238907 -134.443039 -139.490585 41.328899 3.956684 13.280002 166.388367 151.662430 153.391739 43.477409 -0.000024 12.839273 176.995316 179.999985 -160.741119 0.755723 0.000000 -0.000003 180.000000 -180.000000 180.000000 15.000049 -0.000005 22.983458 180.000000 -179.999985 -161.195358 0.000001 0.000007 13.163306 180.000000 -180.000000 -180.000000 0.000010 0.000003 28.287096 0.000001 -0.000009 34.104549 180.000000 -180.000000 -157.286423 180.000000 -180.000000 180.000000 170.000015 -179.999985 -152.110260 179.999985 180.000000 -148.689804 0.000008 0.000006 20.852537 180.000000 -180.000000 180.000000 160.000061 -179.999985 -155.133041 180.000000 179.999985 -142.699570 180.000000 -179.999985 -155.157928 1.940741 3.306696 -1.168200 5.786759 -36.130329 -59.865284 161.823410 174.589218 175.080307 16.540516 39.119026 43.544643 136.522598 -179.999985 167.160721 3.004681 0.000008 -19.258894 0.755723 0.000000 -0.000003 0.000005 -0.000002 0.000002 164.999954 -179.999985 157.016541 0.000002 -0.000003 -18.804642 180.000000 179.999985 166.836685 0.000005 -0.000002 0.000002 179.999985 179.999985 151.712906 180.000000 -179.999985 145.895447 0.000000 -0.000002 -22.713579 0.000005 -0.000002 0.000002 9.999979 -0.000006 -27.889727 0.000007 0.000000 -31.310192 179.999985 179.999985 159.147461 0.000005 -0.000002 0.000002 19.999945 -0.000026 -24.866964 0.000004 0.000009 -37.300442 0.000001 -0.000004 -24.842075
